{"title":"Biker_boyz_(2003)_(Dutchsubs-HC)-2lions+WaRlOrD","uid":4958441,"size":734184510,"categoryP":"video","categoryS":"movies","magnet":"?xt=urn:btih:49187a9f45204c01e4af18bb5b12095777a9f450&amp;dn=Biker_boyz_%282003%29_%28Dutchsubs-HC%29-2lions%2BWaRlOrD&amp;tr=udp%3A%2F%2Ftracker.openbittorrent.com%3A80&amp;tr=udp%3A%2F%2Fopen.demonii.com%3A1337&amp;tr=udp%3A%2F%2Ftracker.coppersurfer.tk%3A6969&amp;tr=udp%3A%2F%2Fexodus.desync.com%3A6969","seeders":1,"leechers":0,"uploader":"bitpirate","files":-1,"time":1245206784,"description":"WaRlOrD presents: Biker boyz\n----------------------------\n\nVerenigde Staten\nActie\n110 minuten\n\ngeregisseerd door Reggie Rock Bythewood\nmet Laurence Fishburne, Derek Luke en Orlando Jones\n\nIn de onderwereld van de motorclubs is er ÃƒÂ©ÃƒÂ©n koning: Smoke, oftewel King of Cali (Laurence Fishburne). Zijn hoge en dominante positie wordt echter bedreigd door een nieuwkomer in de motorwereld. Kid (Derek Luke) heeft er alles voor over om Smokes helm en daarmee ook zijn titel te veroveren.\n &lt;a href=&quot;\nhttp://moviemeter.nl/film/7594&quot; rel=&quot;nofollow&quot; target=&quot;_NEW&quot;&gt;\nhttp://moviemeter.nl/film/7594&lt;/a&gt;\n\n------------------------------\n\nA mythic motorcycle tale of father and son&quot;, this is the story of Manuel Galloway (Fishburne), also known as &quot;the King of Cali&quot;, the president of a motorcycle club whose members are all African-American men, mostly white-collar workers who exchange their suits and ties at night and on weekends for leather outfits and motorcycle helmets. The focus of this story takes place at an annual drag-racing event in Fresno, as Manuel tries to retain his championship title.\n &lt;a href=&quot;\nhttp://www.imdb.com/title/tt0326769/&quot; rel=&quot;nofollow&quot; target=&quot;_NEW&quot;&gt;\nhttp://www.imdb.com/title/tt0326769/&lt;/a&gt;\n\n\nFormat                           : AVI\nFormat/Info                      : Audio Video Interleave\nFile size                        : 700 MiB\nDuration                         : 1h 46mn\nOverall bit rate                 : 920 Kbps\nWriting application              : VirtualDubMod 1.5.4.1 (build 2178/release)\nWriting library                  : VirtualDubMod build 2178/release\n\nVideo\nFormat                           : MPEG-4 Visual\nFormat profile                   : Streaming Video@L1\nFormat settings, BVOP            : Yes\nFormat settings, QPel            : No\nFormat settings, GMC             : No warppoints\nFormat settings, Matrix          : Custom\nCodec ID                         : XVID\nCodec ID/Hint                    : XviD\nDuration                         : 1h 46mn\nBit rate                         : 793 Kbps\nWidth                            : 576 pixels\nHeight                           : 320 pixels\nDisplay aspect ratio             : 16/9\nFrame rate                       : 25.000 fps\nResolution                       : 24 bits\nColorimetry                      : 4:2:0\nScan type                        : Progressive\nBits/(Pixel*Frame)               : 0.172\nStream size                      : 604 MiB (86%)\nWriting library                  : XviD 1.2.0.dev47 (UTC 2006-11-01)\n\nAudio\nFormat                           : MPEG Audio\nFormat version                   : Version 1\nFormat profile                   : Layer 3\nCodec ID                         : 55\nCodec ID/Hint                    : MP3\nDuration                         : 1h 46mn\nBit rate mode                    : Variable\nBit rate                         : 114 Kbps\nNominal bit rate                 : 128 Kbps\nChannel(s)                       : 2 channels\nSampling rate                    : 48.0 KHz\nResolution                       : 16 bits\nStream size                      : 86.6 MiB (12%)\nAlignment                        : Aligned on interleaves\nInterleave, duration             : 24 ms (0.60 video frame)\nInterleave, preload duration     : 162 ms\nWriting library                  : LAME3.97 \nEncoding settings                : -m j -V 4 -q 2 -lowpass 17 --abr 128\nLanguage                         : English\n\n******************************************\n\nBrought to you by\n\nWaRlOrD\nAND\n2Lions Team\n\nmeer zien??\nKom dan eens kijken op ons forum &lt;a href=&quot;\nhttp://www.2lions.ons-forum.nl&quot; rel=&quot;nofollow&quot; target=&quot;_NEW&quot;&gt;\nhttp://www.2lions.ons-forum.nl&lt;/a&gt;\n\n******************************************\nYou need this reseed? send me a pm @ piratebay forum\n","torrent":{"xt":"urn:btih:49187a9f45204c01e4af18bb5b12095777a9f450","amp;dn":"Biker_boyz_%282003%29_%28Dutchsubs-HC%29-2lions%2BWaRlOrD","amp;tr":["udp%3A%2F%2Ftracker.openbittorrent.com%3A80","udp%3A%2F%2Fopen.demonii.com%3A1337","udp%3A%2F%2Ftracker.coppersurfer.tk%3A6969","udp%3A%2F%2Fexodus.desync.com%3A6969"],"infoHash":"49187a9f45204c01e4af18bb5b12095777a9f450","infoHashBuffer":{"type":"Buffer","data":[73,24,122,159,69,32,76,1,228,175,24,187,91,18,9,87,119,169,244,80]},"announce":[],"urlList":[]}}